<svg width="174" height="30" viewBox="0 0 174 30" fill="none" xmlns="http://www.w3.org/2000/svg">
<g clip-path="url(#clip0_4_10)">
<path d="M69.1105 16.5786H59.0589V19.1159H69.1105V16.5786Z" fill="#333333"/>
<path d="M58.1961 1.21117H49.2923V28.136H58.1961V1.21117Z" fill="#333333"/>
<path d="M28.2866 1.21117L24.279 14.068L18.9455 0.303818L12.85 14.0762L9.39854 1.21117H0.178131L8.36745 30L14.7163 15.193L21.0651 30L30.046 1.21117H28.2866Z" fill="#333333"/>
<path d="M39.3297 25.726V11.1161H47.1826V8.70604H39.3297V3.87574H46.6067V1.21117H30.5229V28.136H47.7565V25.726H39.3297Z" fill="#333333"/>
<path d="M89.8925 16.8742C91.9508 21.1934 90.229 24.6216 90.229 24.6216C88.6497 28.1791 84.3057 28.6759 84.3057 28.6759C84.3057 28.6759 83.2528 28.7642 81.9427 28.6677C80.6246 28.5671 79.9458 28.4686 78.796 27.514C77.5551 26.4856 76.9654 25.4489 76.9654 25.4489C76.9654 25.4489 76.6586 25.0691 76.247 24.2418C75.7859 23.3139 75.6572 22.2301 75.6572 22.2301C75.6572 22.2301 78.1152 25.3647 79.934 26.0832C81.7527 26.8017 82.4236 26.9084 83.9831 26.0832C85.5426 25.065 83.9831 22.7802 83.9831 22.7802C83.9831 22.7802 76.7754 12.7439 76.1045 10.7137C74.2857 6.51978 77.8282 2.07335 78.8811 1.43903C86.447 -2.62556 89.6056 3.21678 89.6056 3.21678C85.0082 0.802655 81.9447 2.07335 81.9447 2.07335C81.9447 2.07335 81.6102 2.67689 81.7072 3.6294L89.8925 16.8742Z" fill="#333333"/>
<path d="M102.341 0.277132C96.841 0.277132 92.3822 6.4274 92.3822 14.0126C92.3822 21.5978 96.841 27.746 102.341 27.746C107.841 27.746 112.299 21.5978 112.299 14.0126C112.299 6.4274 107.841 0.277132 102.341 0.277132ZM102.034 26.6457C101.577 26.6457 101.128 26.5964 100.686 26.5081V1.69153C101.126 1.6012 101.575 1.55399 102.034 1.55399C107.057 1.55399 111.132 7.17052 111.132 14.0988C111.132 21.0271 107.057 26.6457 102.034 26.6457Z" fill="#333333"/>
<path d="M114.884 0.802656H123.408V25.958H127.334C127.334 25.958 131.069 25.3216 131.069 18.9702C131.069 12.6167 131.069 0.802656 131.069 0.802656H132.409V16.4288C132.327 20.4564 132.88 25.4694 128.89 27.3539C127.837 27.8363 127.031 27.9472 122.066 27.7439C120.629 27.4812 114.884 28.7129 114.884 19.9843C114.884 13.253 114.884 0.802656 114.884 0.802656Z" fill="#333333"/>
<path d="M135.698 0.277132V27.2266H136.911V14.5237V14.0126L152.997 27.8815V1.05926H151.849V14.0126L135.698 0.277132Z" fill="#333333"/>
<path d="M166.084 1.04694C160.339 0.792391 156.507 1.22554 156.507 1.22554V27.1404H166.084C166.084 27.1404 173.345 27.1404 173.872 15.115C173.872 10.7958 173.042 3.0895 166.084 1.04694ZM166.834 25.2908H164.808V2.80416H166.644C170.858 5.18544 172.718 9.22335 172.718 14.3431C172.716 19.0092 171.192 23.4802 166.834 25.2908Z" fill="#333333"/>
</g>
<defs>
<clipPath id="clip0_4_10">
<rect width="173.694" height="30" fill="white" transform="translate(0.178131)"/>
</clipPath>
</defs>
</svg>
